<svg width="18" height="14" viewBox="0 0 18 14" fill="none" xmlns="http://www.w3.org/2000/svg">
<path fill-rule="evenodd" clip-rule="evenodd" d="M15.8504 0.487387L15.3482 -0.000442505L2.42368 12.5548L2.92585 13.0426L15.8504 0.487387ZM1.82349 6.11365C1.72902 6.2137 1.64023 6.30892 1.55784 6.4C2.17454 7.07997 2.84936 7.70804 3.57507 8.27749C3.96147 8.58109 4.35853 8.86123 4.76339 9.11446L4.37841 9.69406C2.11826 8.28094 0.632324 6.4 0.632324 6.4C0.632324 6.4 4.44873 1.57 9.15585 1.57C10.168 1.57 11.1383 1.79356 12.0396 2.14339L11.4948 2.68021C10.7078 2.4049 9.92652 2.26 9.15585 2.26C7.28565 2.26 5.38774 3.10249 3.57436 4.52251C2.92799 5.02828 2.34058 5.57131 1.82349 6.11365ZM7.75232 9.04063L8.01513 8.39893C8.90137 8.74125 9.91109 8.56086 10.614 7.93465C11.3169 7.30843 11.589 6.34679 11.3144 5.45953L11.9942 5.26219C12.3468 6.40282 11.9967 7.63885 11.0931 8.44374C10.1895 9.24862 8.8916 9.48052 7.75232 9.04063ZM16.7539 6.4C16.6715 6.49108 16.5827 6.5863 16.4882 6.68635C15.9711 7.22869 15.3837 7.77172 14.7373 8.27749C12.924 9.69751 11.0261 10.54 9.15585 10.54C8.47823 10.54 7.79208 10.4275 7.10097 10.2136L6.53273 10.7539C7.3588 11.0471 8.24099 11.23 9.15585 11.23C13.863 11.23 17.6794 6.4 17.6794 6.4C17.6794 6.4 16.3589 4.72951 14.3154 3.35365L13.9106 3.92083C14.1904 4.1092 14.4667 4.31068 14.7366 4.52251C15.4623 5.09196 16.1372 5.72002 16.7539 6.4ZM10.5651 3.6124L10.2519 4.23133C9.31156 3.78217 8.18231 3.95395 7.42837 4.66084C6.67444 5.36772 6.4577 6.45793 6.88647 7.3867L6.23797 7.6696C5.6864 6.4754 5.96497 5.07344 6.93444 4.16444C7.90391 3.25545 9.35607 3.03465 10.5651 3.6124Z" fill="#380628"/>
</svg>
